<svg width="24" height="24" viewBox="0 0 24 24" fill="none" xmlns="http://www.w3.org/2000/svg">
<g clip-path="url(#clip0_2079_3234)">
<path d="M5.521 19.9H10.843L14.362 23.4151C14.5511 23.6052 14.776 23.7561 15.0236 23.8591C15.2712 23.9621 15.5368 24.0151 15.805 24.015C15.9815 24.0148 16.1572 23.9923 16.328 23.948C16.6732 23.8609 16.9894 23.6843 17.2447 23.4361C17.4999 23.1879 17.6853 22.8767 17.782 22.534L23.989 1.42505L5.521 19.9Z" fill="#343B6E"/>
<path d="M4.08703 18.5L22.572 0.0119629L1.47803 6.23296C1.13457 6.33064 0.822612 6.51642 0.573111 6.77187C0.323609 7.02733 0.145234 7.34358 0.0556829 7.68925C-0.0338682 8.03492 -0.0314835 8.398 0.0626007 8.74246C0.156685 9.08693 0.339198 9.40081 0.592034 9.65296L4.08703 13.145V18.5Z" fill="#343B6E"/>
</g>
<defs>
<clipPath id="clip0_2079_3234">
<rect width="24" height="24" fill="white"/>
</clipPath>
</defs>
</svg>
