<svg width="24" height="24" viewBox="0 0 24 24" fill="none" xmlns="http://www.w3.org/2000/svg">
<g clip-path="url(#clip0_2050_749)">
<path d="M12 24C11.445 24 10.891 23.923 10.352 23.769L3.626 21.848C1.491 21.238 0 19.261 0 17.04V3.99997C0 3.44797 0.448 2.99997 1 2.99997C1.552 2.99997 2 3.44797 2 3.99997V17.04C2 18.373 2.895 19.559 4.176 19.925L10.902 21.846C11.621 22.051 12.38 22.051 13.1 21.846L19.825 19.925C21.106 19.559 22.001 18.373 22.001 17.04V2.99997C22.001 2.44797 22.449 1.99997 23.001 1.99997C23.553 1.99997 24.001 2.44797 24.001 2.99997V17.04C24.001 19.26 22.51 21.237 20.375 21.848L13.649 23.769C13.109 23.923 12.555 24 12.001 24H12ZM18.023 0.154971C17.295 -0.114029 16.484 -0.0470291 15.763 0.240971L14.886 0.590971C13.747 1.04597 12.999 2.14997 12.999 3.37697V17.873C12.671 17.957 12.336 18 11.999 18C11.662 18 11.327 17.957 10.999 17.873V3.37697C10.999 2.14997 10.252 1.04597 9.112 0.590971L8.234 0.239971C7.513 -0.0480292 6.702 -0.115029 5.974 0.154971C4.759 0.604971 3.998 1.73797 3.998 2.97697V15.691C3.998 17.03 4.886 18.207 6.173 18.575L10.349 19.769C10.887 19.922 11.442 19.999 11.997 19.999C12.552 19.999 13.107 19.922 13.645 19.769L17.821 18.575C19.109 18.207 19.996 17.03 19.996 15.691V2.97697C19.996 1.73797 19.234 0.603971 18.019 0.154971H18.023Z" fill="#707070"/>
</g>
<defs>
<clipPath id="clip0_2050_749">
<rect width="24" height="24" fill="white"/>
</clipPath>
</defs>
</svg>
