<svg width="24" height="24" viewBox="0 0 24 24" fill="none" xmlns="http://www.w3.org/2000/svg">
<path d="M23.962 7.725L22.79 3.626C22.18 1.491 20.202 0 17.982 0H17V4C16.994 5.308 15.005 5.307 15 4V0H9.00003V4C8.99403 5.308 7.00603 5.307 7.00003 4V0H6.01703C3.79703 0 1.82003 1.491 1.20903 3.626L0.0390263 7.725C-0.121974 8.791 0.353026 9.863 1.00003 10.618V20C1.00003 22.206 2.79403 24 5.00003 24H11C13.206 24 15 22.206 15 20V11.444C15.378 11.223 15.714 10.946 16 10.618C16.734 11.458 17.799 12 19 12H20C20.347 12 20.678 11.942 21 11.858V23C21.006 24.308 22.995 24.307 23 23V10.618C23.648 9.864 24.122 8.792 23.962 7.725ZM13 17H3.00003V11.858C3.32203 11.942 3.65303 12 4.00003 12H5.00003C6.20003 12 7.26603 11.458 8.00003 10.618C8.73403 11.458 9.80003 12 11 12H13V17Z" fill="#343B6E"/>
</svg>
