<svg width="24" height="24" viewBox="0 0 24 24" fill="none" xmlns="http://www.w3.org/2000/svg">
<g clip-path="url(#clip0_2050_702)">
<path d="M23.9624 7.725L22.7904 3.626C22.1804 1.491 20.2024 0 17.9824 0H17.0004V4C16.9944 5.308 15.0054 5.307 15.0004 4V0H9.00039V4C8.99439 5.308 7.00639 5.307 7.00039 4V0H6.01739C3.79739 0 1.82039 1.491 1.20939 3.626L0.0393925 7.725C-0.121607 8.791 0.353392 9.863 1.00039 10.618V20C1.00039 22.206 2.79439 24 5.00039 24H11.0004C13.2064 24 15.0004 22.206 15.0004 20V11.444C15.3784 11.223 15.7144 10.946 16.0004 10.618C16.7344 11.458 17.7994 12 19.0004 12H20.0004C20.3474 12 20.6784 11.942 21.0004 11.858V23C21.0064 24.308 22.9954 24.307 23.0004 23V10.618C23.6484 9.864 24.1224 8.792 23.9624 7.725ZM13.0004 17H3.00039V11.858C3.32239 11.942 3.65339 12 4.00039 12H5.00039C6.20039 12 7.26639 11.458 8.00039 10.618C8.73439 11.458 9.80039 12 11.0004 12H13.0004V17Z" fill="#707070"/>
</g>
<defs>
<clipPath id="clip0_2050_702">
<rect width="24" height="24" fill="white"/>
</clipPath>
</defs>
</svg>
