<svg width="24" height="24" viewBox="0 0 24 24" fill="none" xmlns="http://www.w3.org/2000/svg">
<g clip-path="url(#clip0_2059_605)">
<path d="M23.1172 9.87895L18.1672 4.92896L16.0462 7.04996L19.5002 10.5H6.61719V13.5H19.5002L16.0502 16.95L18.1712 19.071L23.1212 14.121C23.6831 13.5578 23.9983 12.7946 23.9975 11.9991C23.9968 11.2036 23.6801 10.441 23.1172 9.87895Z" fill="#707070"/>
<path d="M9.99386 20.5C9.99386 20.6326 9.94118 20.7598 9.84741 20.8536C9.75364 20.9473 9.62647 21 9.49386 21H3.50586C3.37325 21 3.24607 20.9473 3.15231 20.8536C3.05854 20.7598 3.00586 20.6326 3.00586 20.5V3.53101C3.00586 3.3984 3.05854 3.27122 3.15231 3.17745C3.24607 3.08368 3.37325 3.03101 3.50586 3.03101H9.49386C9.62647 3.03101 9.75364 3.08368 9.84741 3.17745C9.94118 3.27122 9.99386 3.3984 9.99386 3.53101V8.34501H12.9939V3.53101C12.9925 2.60315 12.6234 1.71368 11.9673 1.05759C11.3112 0.401502 10.4217 0.0323285 9.49386 0.0310059H3.50586C2.57801 0.0323285 1.68854 0.401502 1.03245 1.05759C0.376356 1.71368 0.00718205 2.60315 0.00585938 3.53101V20.5C0.00585938 21.4283 0.374608 22.3185 1.03099 22.9749C1.68736 23.6313 2.5776 24 3.50586 24H9.49386C10.4221 24 11.3124 23.6313 11.9687 22.9749C12.6251 22.3185 12.9939 21.4283 12.9939 20.5V15.683H9.99386V20.5Z" fill="#707070"/>
</g>
<defs>
<clipPath id="clip0_2059_605">
<rect width="24" height="24" fill="white"/>
</clipPath>
</defs>
</svg>
