<svg width="62" height="70" viewBox="0 0 62 70" fill="none" xmlns="http://www.w3.org/2000/svg">
<g clip-path="url(#clip0_2085_703)">
<path d="M59.0625 56.875H55.8619L37.9914 7.34043C37.697 6.47546 37.1392 5.72437 36.3963 5.19254C35.6533 4.6607 34.7625 4.37482 33.8488 4.375H27.4012C26.4875 4.37482 25.5967 4.6607 24.8537 5.19254C24.1108 5.72437 23.553 6.47546 23.2586 7.34043L5.38809 56.875H2.1875C1.60734 56.875 1.05094 57.1055 0.640704 57.5157C0.230468 57.9259 0 58.4823 0 59.0625L0 63.4375C0 64.0177 0.230468 64.5741 0.640704 64.9843C1.05094 65.3945 1.60734 65.625 2.1875 65.625H19.6875C20.2677 65.625 20.8241 65.3945 21.2343 64.9843C21.6445 64.5741 21.875 64.0177 21.875 63.4375V59.0625C21.875 58.4823 21.6445 57.9259 21.2343 57.5157C20.8241 57.1055 20.2677 56.875 19.6875 56.875H17.0105L20.1961 48.125H41.0539L44.2395 56.875H41.5625C40.9823 56.875 40.4259 57.1055 40.0157 57.5157C39.6055 57.9259 39.375 58.4823 39.375 59.0625V63.4375C39.375 64.0177 39.6055 64.5741 40.0157 64.9843C40.4259 65.3945 40.9823 65.625 41.5625 65.625H59.0625C59.6427 65.625 60.1991 65.3945 60.6093 64.9843C61.0195 64.5741 61.25 64.0177 61.25 63.4375V59.0625C61.25 58.4823 61.0195 57.9259 60.6093 57.5157C60.1991 57.1055 59.6427 56.875 59.0625 56.875ZM24.1787 37.1875L30.625 19.4838L37.0713 37.1875H24.1787Z" fill="#343B6E"/>
</g>
<defs>
<clipPath id="clip0_2085_703">
<rect width="61.25" height="70" fill="white"/>
</clipPath>
</defs>
</svg>
