<svg width="70" height="70" viewBox="0 0 70 70" fill="none" xmlns="http://www.w3.org/2000/svg">
<g clip-path="url(#clip0_2085_757)">
<path d="M60.0473 43.4219L68.0317 51.7344L32.9223 69.3438C32.9223 69.3438 28.3286 71.6406 26.1411 68.0312C17.3911 53.8125 60.0473 43.4219 60.0473 43.4219Z" fill="#256382"/>
<path d="M31.9371 58.9531C31.9371 58.9531 25.2653 61.4688 26.4684 66.1719C27.7809 71.0938 33.1403 68.1406 33.1403 68.1406L66.4996 51.7344C66.4996 51.7344 64.6403 46.4844 68.0309 42.9844L31.9371 58.9531Z" fill="#D9E3E8"/>
<path d="M37.625 9.73438L69.5625 42.6562L31.8281 58.2969L7.65625 18.2656L37.625 9.73438Z" fill="#42ADE2"/>
<path d="M66.3906 46.5937L44.0781 56.2188L65.9531 45.6094L66.3906 46.5937ZM66.0625 49.4375L42.3281 59.8281L65.625 48.4531L66.0625 49.4375ZM66.2812 51.0781L35.9844 64.9688L65.8438 50.0937L66.2812 51.0781Z" fill="#94989B"/>
<path d="M26.0312 67.9218C22.3125 59.7186 31.8281 58.2968 31.8281 58.2968L7.65625 18.2655C7.65625 18.2655 2.1875 18.1561 2.1875 24.1718C2.1875 26.6874 3.28125 28.5468 3.28125 28.5468L26.0312 67.9218Z" fill="#428BC1"/>
<path d="M9.51562 35.2188L1.53125 43.5312L36.6406 61.1406C36.6406 61.1406 41.2344 63.4375 43.4219 59.8281C52.1719 45.6094 9.51562 35.2188 9.51562 35.2188Z" fill="#547725"/>
<path d="M37.5156 50.75C37.5156 50.75 44.1875 53.2656 42.9844 57.9688C41.6719 62.8906 36.4219 59.9375 36.4219 59.9375L3.0625 43.5312C3.0625 43.5312 4.92187 38.2812 1.53125 34.7812L37.5156 50.75Z" fill="#D9E3E8"/>
<path d="M31.9375 1.53125L0 34.4531L37.7344 50.0937L61.9062 10.0625L31.9375 1.53125Z" fill="#83BF4F"/>
<path d="M3.5 37.4062L25.375 48.0156L3.0625 38.3906L3.5 37.4062ZM3.9375 40.25L27.125 51.625L3.39062 41.2344L3.9375 40.25ZM3.71875 41.8906L33.4688 56.7656L3.17188 42.875L3.71875 41.8906Z" fill="#94989B"/>
<path d="M43.5312 59.7186C47.25 51.5155 37.7344 50.0936 37.7344 50.0936L61.9063 10.0624C61.9063 10.0624 67.375 9.95302 67.375 15.9686C67.375 18.4843 66.2813 20.3436 66.2813 20.3436L43.5312 59.7186Z" fill="#699635"/>
<path d="M62.0157 28.4375L68.6876 35.4375L39.0469 50.2031C39.0469 50.2031 35.1094 52.0625 33.2501 49.1094C26.0313 37.1875 62.0157 28.4375 62.0157 28.4375Z" fill="#962C2C"/>
<path d="M38.2813 41.5625C38.2813 41.5625 32.5938 43.6406 33.6876 47.6875C34.7813 51.8437 39.2657 49.3281 39.2657 49.3281L67.3751 35.4375C67.3751 35.4375 65.8438 31.0625 68.6876 28.1094L38.2813 41.5625Z" fill="#D9E3E8"/>
<path d="M43.0938 0L70 27.7812L38.1719 41.0156L17.7188 7.21875L43.0938 0Z" fill="#ED4C5C"/>
<path d="M43.8594 6.34375L49.1094 12.1406L29.75 19.4687L25.1562 12.0312L43.8594 6.34375Z" fill="white"/>
<path d="M67.375 31.1719L48.5625 39.1562L66.9375 30.1875L67.375 31.1719ZM67.1562 33.5781L47.0312 42.2187L66.7188 32.5937L67.1562 33.5781ZM67.375 34.8906L41.7812 46.5937L66.8281 33.9062L67.375 34.8906Z" fill="#94989B"/>
<path d="M33.3594 49.1093C30.2969 42.2187 38.2812 41.0156 38.2812 41.0156L17.7188 7.2187C17.7188 7.2187 13.0156 7.10932 13.0156 12.1406C13.0156 14.2187 13.8906 15.8593 13.8906 15.8593L33.3594 49.1093Z" fill="#C94747"/>
</g>
<defs>
<clipPath id="clip0_2085_757">
<rect width="70" height="70" fill="white"/>
</clipPath>
</defs>
</svg>
