<svg width="80" height="80" viewBox="0 0 80 80" fill="none" xmlns="http://www.w3.org/2000/svg">
<path fill-rule="evenodd" clip-rule="evenodd" d="M5 50H20V72.5065C20 73.1933 19.4303 73.75 18.7469 73.75H6.25309C5.56103 73.75 5 73.1863 5 72.5065V50Z" fill="#595959"/>
<path fill-rule="evenodd" clip-rule="evenodd" d="M60 50H75V72.5065C75 73.1933 74.4303 73.75 73.7469 73.75H61.2531C60.561 73.75 60 73.1863 60 72.5065V50Z" fill="#595959"/>
<path fill-rule="evenodd" clip-rule="evenodd" d="M15.4639 27.4186C15.898 25.3925 17.8947 23.3865 19.9284 22.9965C19.9284 22.9965 26.25 21.25 40 21.25C53.75 21.25 60.0904 22.9999 60.0904 22.9999C62.1116 23.4142 64.1028 25.3964 64.5361 27.4186L67.5 41.25H12.5L15.4639 27.4186Z" fill="#B4DFFB" stroke="#5B68C0" stroke-width="2" stroke-linecap="round"/>
<path fill-rule="evenodd" clip-rule="evenodd" d="M4.64761 49.9658C4.15207 43.7715 8.79085 38.75 14.9989 38.75H65.0018C71.2142 38.75 75.8487 43.7709 75.3531 49.9658L74.2488 63.7699C73.9735 67.2107 70.9784 69.6751 67.5362 69.3149C67.5362 69.3149 56.8754 67.8299 40.0004 67.8299C23.1254 67.8299 12.4495 69.3163 12.4495 69.3163C9.02581 69.6939 6.02629 67.1993 5.75194 63.7699L4.64761 49.9658Z" fill="#5B68C0"/>
<path d="M47.5 52.5H32.5C30.4289 52.5 28.75 54.1789 28.75 56.25V58.75C28.75 60.8211 30.4289 62.5 32.5 62.5H47.5C49.5711 62.5 51.25 60.8211 51.25 58.75V56.25C51.25 54.1789 49.5711 52.5 47.5 52.5Z" fill="#0A3586"/>
<path fill-rule="evenodd" clip-rule="evenodd" d="M11.25 61.25H25V63.75H11.25V61.25Z" fill="#FCC24C"/>
<path fill-rule="evenodd" clip-rule="evenodd" d="M56.25 61.25H70V63.75H56.25V61.25Z" fill="#FCC24C"/>
<path fill-rule="evenodd" clip-rule="evenodd" d="M9.15919 52.4558C8.93314 51.0995 9.85187 50.2004 11.2081 50.447L20.0417 52.0531C21.3993 52.2999 22.4999 53.6097 22.4999 55C22.4999 56.3807 21.3906 57.5 20.0004 57.5H12.4994C11.119 57.5 9.81545 56.3934 9.5906 55.0442L9.15919 52.4558Z" fill="#FCC24C"/>
<path fill-rule="evenodd" clip-rule="evenodd" d="M70.8408 52.4558C71.0669 51.0995 70.1481 50.2004 68.7919 50.447L59.9583 52.0531C58.6007 52.2999 57.5001 53.6097 57.5001 55C57.5001 56.3807 58.6094 57.5 59.9996 57.5H67.5006C68.881 57.5 70.1846 56.3934 70.4094 55.0442L70.8408 52.4558Z" fill="#FCC24C"/>
<path fill-rule="evenodd" clip-rule="evenodd" d="M68.75 34.4162C68.75 33.037 69.8287 32.2185 71.1634 32.5892L80 35.0438V36.9246C80 38.3021 78.8802 39.4188 77.5033 39.4188H68.75V34.4162Z" fill="#5B68C0"/>
<path fill-rule="evenodd" clip-rule="evenodd" d="M11.25 34.4162C11.25 33.037 10.1713 32.2185 8.83659 32.5892L0 35.0438V36.9246C0 38.3021 1.11982 39.4188 2.49674 39.4188H11.25V34.4162Z" fill="#5B68C0"/>
<path fill-rule="evenodd" clip-rule="evenodd" d="M33.75 38.7474C33.75 37.3681 34.8593 36.25 36.2495 36.25H43.7505C45.1309 36.25 46.25 37.3728 46.25 38.7474V43.75H33.75V38.7474Z" fill="#5B68C0"/>
</svg>
