<svg width="97" height="97" viewBox="0 0 97 97" fill="none" xmlns="http://www.w3.org/2000/svg">
<path d="M42.4375 7.57812L12.125 7.57812C10.4509 7.57812 9.09375 8.93526 9.09375 10.6094L9.09375 40.9219C9.09375 42.596 10.4509 43.9531 12.125 43.9531L42.4375 43.9531C44.1116 43.9531 45.4688 42.596 45.4688 40.9219L45.4688 10.6094C45.4688 8.93526 44.1116 7.57812 42.4375 7.57812Z" fill="#ECECEC"/>
<path d="M42.4375 50.0156L12.125 50.0156C10.4509 50.0156 9.09375 51.3728 9.09375 53.0469L9.09375 83.3594C9.09375 85.0335 10.4509 86.3906 12.125 86.3906L42.4375 86.3906C44.1116 86.3906 45.4688 85.0335 45.4688 83.3594L45.4688 53.0469C45.4688 51.3728 44.1116 50.0156 42.4375 50.0156Z" fill="#ECECEC"/>
<path d="M84.875 7.57812L54.5625 7.57812C52.8884 7.57812 51.5313 8.93526 51.5313 10.6094L51.5313 40.9219C51.5313 42.596 52.8884 43.9531 54.5625 43.9531L84.875 43.9531C86.5491 43.9531 87.9063 42.596 87.9063 40.9219L87.9063 10.6094C87.9063 8.93526 86.5491 7.57812 84.875 7.57812Z" fill="#ECECEC"/>
<path d="M84.875 50.0156L54.5625 50.0156C52.8884 50.0156 51.5313 51.3728 51.5313 53.0469L51.5313 83.3594C51.5313 85.0335 52.8884 86.3906 54.5625 86.3906L84.875 86.3906C86.5491 86.3906 87.9063 85.0335 87.9063 83.3594L87.9063 53.0469C87.9063 51.3728 86.5491 50.0156 84.875 50.0156Z" fill="#ECECEC"/>
<path d="M27.2813 34.8594C32.3036 34.8594 36.375 30.788 36.375 25.7656C36.375 20.7433 32.3036 16.6719 27.2812 16.6719C22.2589 16.6719 18.1875 20.7433 18.1875 25.7656C18.1875 30.788 22.2589 34.8594 27.2813 34.8594Z" fill="#ED9111"/>
<path fill-rule="evenodd" clip-rule="evenodd" d="M69.7188 15.0486L80.4358 25.7657L69.7188 36.4828L59.0017 25.7657L69.7188 15.0486Z" fill="#22BA8E"/>
<path fill-rule="evenodd" clip-rule="evenodd" d="M27.2809 74.2656L20.1544 78.0123L21.5154 70.0764L15.75 64.4565L23.7176 63.2986L27.2809 56.0781L30.8441 63.2986L38.8118 64.4565L33.0463 70.0764L34.4073 78.0123L27.2809 74.2656Z" fill="#E43535"/>
<path fill-rule="evenodd" clip-rule="evenodd" d="M69.7188 59.1094L80.3281 77.2969L59.1094 77.2969L69.7188 59.1094Z" fill="#5B68C0"/>
</svg>
