<svg width="80" height="80" viewBox="0 0 80 80" fill="none" xmlns="http://www.w3.org/2000/svg">
<path d="M71.6683 43.8688C70.4433 27.6375 59.0245 16.4375 39.9995 16.4375C20.9745 16.4375 9.53079 28.3312 8.40579 44.5687C7.74954 54.0312 11.2683 62.4625 18.3495 67.2688C23.012 70.4375 29.5245 72.1938 40.0808 72.1938C50.8183 72.1938 56.9745 69.875 61.637 66.7375C69.4058 61.5187 72.3745 53.1938 71.6683 43.8688Z" fill="#FFC022"/>
<path d="M33.5752 26.625C28.9377 14.625 18.8127 6.46252 14.919 5.24377C13.4502 4.78127 11.6065 4.73752 10.7752 6.08752C8.67524 9.49377 5.98774 20.4313 11.9315 35.95L33.5752 26.625Z" fill="#FFC022"/>
<path d="M22.5753 21.3813C23.5378 20.5751 24.0066 19.7876 22.9503 18.1563C21.3128 15.6251 18.3691 12.6688 17.2253 11.7626C15.3503 10.2751 13.9003 9.77507 13.3441 12.1688C12.3128 16.5938 12.3941 22.6001 13.5003 25.9126C13.8878 27.0813 15.0878 27.7001 16.0128 26.8938L22.5753 21.3813Z" fill="#FFD1D1"/>
<path d="M33.825 28.1374C34.5312 28.7374 35.9625 28.6499 36.7937 27.6874C37.8 26.5187 38.85 22.5812 38.1937 16.4937C35.275 16.5999 32.5125 17.0187 29.9375 17.7249C32.0187 21.1374 32.5187 27.0249 33.825 28.1374Z" fill="#FF9B31"/>
<path d="M46.1754 28.1374C45.4691 28.7374 44.0379 28.6499 43.2066 27.6874C42.2004 26.5187 41.1504 22.5812 41.8066 16.4937C44.7254 16.5999 47.4879 17.0187 50.0629 17.7249C47.9816 21.1374 47.4816 27.0249 46.1754 28.1374Z" fill="#FF9B31"/>
<path d="M49.9375 18.2624C54.9875 10.5062 62.05 5.29368 64.9812 4.36243C66.4312 3.89993 68.1187 3.97493 68.9437 5.33118C71.0187 8.73743 72.775 19.2312 68.6812 33.9249L53.725 26.7124L49.9375 18.2624Z" fill="#FFC022"/>
<path d="M60.9683 23.8938C62.487 25.4126 63.7245 26.4313 64.6183 27.4001C65.212 28.0438 66.2995 27.7501 66.4745 26.8876C68.0058 19.5126 67.5183 13.2251 66.4745 11.5751C65.9745 10.7876 65.0433 10.5813 64.1933 10.8688C62.6683 11.3751 58.7808 14.2751 56.037 18.5063C55.7183 19.0001 55.837 19.6626 56.3245 19.9938C57.312 20.6626 59.037 21.9563 60.9683 23.8938Z" fill="#FFD1D1"/>
<path d="M34.7942 48.5937C34.763 46.6687 37.5255 45.7499 40.1317 45.7062C42.7442 45.6624 45.5567 46.5124 45.588 48.4374C45.6192 50.3624 42.3255 52.8937 40.2505 52.8937C38.1817 52.8937 34.8317 50.5124 34.7942 48.5937Z" fill="black"/>
<path d="M4.1875 44.3938C4.4 44.65 6.94375 44.6125 13.1625 47.5625" stroke="#9E9E9E" stroke-width="3" stroke-miterlimit="10" stroke-linecap="round"/>
<path d="M1.8125 51.7876C1.8125 51.7876 5.825 50.3876 12.725 51.6126" stroke="#9E9E9E" stroke-width="3" stroke-miterlimit="10" stroke-linecap="round"/>
<path d="M5.50586 57.6814C5.50586 57.6814 7.21836 56.8189 13.4246 56.2751" stroke="#9E9E9E" stroke-width="3" stroke-miterlimit="10" stroke-linecap="round"/>
<path d="M75.5436 42.1938C75.5436 42.1938 73.4123 42.4001 66.8311 46.1563" stroke="#9E9E9E" stroke-width="3" stroke-miterlimit="10" stroke-linecap="round"/>
<path d="M76.5127 49.0562C76.5127 49.0562 73.3314 48.8312 66.4814 50.2875" stroke="#9E9E9E" stroke-width="3" stroke-miterlimit="10" stroke-linecap="round"/>
<path d="M75.2814 55.6562C75.2814 55.6562 72.2627 54.5875 66.0439 54.25" stroke="#9E9E9E" stroke-width="3" stroke-miterlimit="10" stroke-linecap="round"/>
<path d="M60.0562 41.4812C59.8437 44.925 57.7063 46.8187 55.275 46.8187C52.8438 46.8187 50.875 44.3937 50.875 41.4062C50.875 38.4187 52.925 35.9625 55.6563 36.1125C58.825 36.2937 60.2312 38.6687 60.0562 41.4812Z" fill="#000200"/>
<path d="M28.75 41.1314C29.2375 44.6376 27.7625 46.7751 25.3187 47.2689C22.875 47.7626 20.7812 46.1189 20.175 43.1189C19.5625 40.1126 20.7375 37.2939 23.5125 36.8876C26.7312 36.4189 28.35 38.2626 28.75 41.1314Z" fill="#000200"/>
<path d="M28.119 53.225C26.5127 54.2688 28.4127 56.6875 29.5252 57.5063C30.6377 58.325 32.6377 59.3312 35.569 59.0312C39.0315 58.6812 40.0252 56.1 40.0252 56.1C40.0252 56.1 41.2565 58.975 45.5377 59.0938C49.8815 59.2125 51.2252 56.8625 51.8127 56.1625C52.4002 55.4563 52.9877 53.6375 51.9877 52.9375C50.9877 52.2312 50.2877 53.1125 49.2315 54.5813C48.1752 56.05 46.0065 56.8688 43.894 55.8688C41.7815 54.8688 41.6627 51.4688 41.6627 51.4688L38.669 51.6437C38.669 51.6437 38.2002 54.575 36.8502 55.5125C35.5002 56.45 32.2752 56.6875 30.9252 54.6313C30.3315 53.7188 29.469 52.3438 28.119 53.225Z" fill="black"/>
</svg>
