<svg width="72" height="70" viewBox="0 0 72 70" fill="none" xmlns="http://www.w3.org/2000/svg">
<g clip-path="url(#clip0_2085_790)">
<path fill-rule="evenodd" clip-rule="evenodd" d="M65.964 69.8446C64.3733 70.1864 52.7527 64.1864 51.0347 64.1864C40.0405 64.1864 31.1289 56.7284 31.1289 47.5293C31.1289 38.3295 40.0405 30.8716 51.0347 30.8716C62.0267 30.8716 70.9409 38.3295 70.9409 47.5293C70.9409 52.7894 68.0264 57.4801 63.4768 60.5329C62.9792 60.8643 62.9868 61.5061 63.2632 62.2999L65.964 69.8446Z" fill="#142A3B"/>
<path opacity="0.35" fill-rule="evenodd" clip-rule="evenodd" d="M51.0347 30.8716C40.0405 30.8716 31.1289 38.3295 31.1289 47.5293C31.1289 51.9831 33.2305 56.0186 36.6331 59.007C36.883 58.9501 37.0956 58.9151 37.251 58.9151C52.0393 58.9151 64.4875 50.5628 68.2482 39.1901C64.8025 34.2218 58.3923 30.8716 51.0347 30.8716Z" fill="#020403"/>
<path fill-rule="evenodd" clip-rule="evenodd" d="M8.04411 62.9784C10.6145 63.5309 29.3938 53.8352 32.1702 53.8352C49.9368 53.8352 64.3378 41.7828 64.3378 26.9166C64.3378 12.0495 49.9368 -0.00292985 32.1702 -0.00292979C14.4063 -0.00292973 0.000976602 12.0495 0.000976651 26.9166C0.000976678 35.4171 4.7106 42.9973 12.0632 47.9307C12.8669 48.4665 12.8551 49.5028 12.4083 50.786L8.04411 62.9784Z" fill="#F15D41"/>
<path fill-rule="evenodd" clip-rule="evenodd" d="M8.61242 27.4197C7.63275 27.4197 6.83887 26.6254 6.83887 25.6464C6.83887 15.4277 16.6186 7.11475 28.639 7.11475C29.6186 7.11475 30.4122 7.90895 30.4122 8.88862C30.4122 9.86764 29.6186 10.6618 28.639 10.6618C18.574 10.6618 10.386 17.3838 10.386 25.6464C10.386 26.6254 9.59209 27.4197 8.61242 27.4197Z" fill="white"/>
<path opacity="0.35" fill-rule="evenodd" clip-rule="evenodd" d="M54.8232 7.80762C58.4168 12.1525 60.5273 17.4215 60.5273 23.1059C60.5273 37.9721 46.1262 50.0238 28.3593 50.0238C26.4127 50.0238 16.6016 54.7884 10.0239 57.4471L8.04395 62.9784C10.6146 63.5309 29.3936 53.8349 32.1701 53.8349C49.9367 53.8349 64.3377 41.7828 64.3377 26.9166C64.3377 19.4446 60.698 12.6847 54.8232 7.80762Z" fill="#020403"/>
</g>
<defs>
<clipPath id="clip0_2085_790">
<rect width="71.3084" height="70" fill="white"/>
</clipPath>
</defs>
</svg>
