<svg width="196" height="143" viewBox="0 0 196 143" fill="none" xmlns="http://www.w3.org/2000/svg">
<path fill-rule="evenodd" clip-rule="evenodd" d="M171.55 142.412C200.504 140.387 222.334 115.274 220.309 86.3209C218.284 57.3673 193.172 35.5371 164.218 37.5618C156.632 38.0923 149.534 40.2079 143.227 43.5624C138.434 17.6294 114.824 -1.12936 87.8903 0.754009C58.9368 2.77864 37.1066 27.8914 39.1312 56.845C39.3826 60.4403 39.99 63.9258 40.9166 67.2694C40.5666 67.2852 40.2159 67.3054 39.8644 67.33C16.7016 68.9497 -0.762612 89.0399 0.857092 112.203C2.4768 135.366 22.567 152.83 45.7299 151.21L171.55 142.412Z" fill="#5EA7FF"/>
</svg>
