<svg width="209" height="183" viewBox="0 0 209 183" fill="none" xmlns="http://www.w3.org/2000/svg">
<g clip-path="url(#clip0_2085_798)">
<path fill-rule="evenodd" clip-rule="evenodd" d="M58.4854 187.715L194.79 178.183L195.768 192.163L59.4629 201.695L58.4854 187.715Z" fill="#5EA7FF"/>
<path fill-rule="evenodd" clip-rule="evenodd" d="M184.55 182.412C213.504 180.387 235.334 155.274 233.309 126.321C231.284 97.3673 206.172 75.5371 177.218 77.5618C169.632 78.0923 162.534 80.2079 156.227 83.5624C151.434 57.6294 127.824 38.8706 100.89 40.754C71.9368 42.7786 50.1066 67.8914 52.1312 96.845C52.3826 100.44 52.99 103.926 53.9166 107.269C53.5666 107.285 53.2159 107.305 52.8644 107.33C29.7016 108.95 12.2374 129.04 13.8571 152.203C15.4768 175.366 35.567 192.83 58.7299 191.21L184.55 182.412Z" fill="#F0F2FF"/>
<path d="M178.196 91.5416C199.429 90.0569 217.845 106.066 219.329 127.298" stroke="white" stroke-width="2" stroke-linecap="round"/>
</g>
<defs>
<clipPath id="clip0_2085_798">
<rect width="224.226" height="224.226" fill="white" transform="translate(0.831055 16.1418) rotate(-4)"/>
</clipPath>
</defs>
</svg>
