<svg width="80" height="80" viewBox="0 0 80 80" fill="none" xmlns="http://www.w3.org/2000/svg">
<path d="M40 5L5 35L7.5 35L7.5 76.25L72.5 76.25L72.5 35L75 35L40 5Z" fill="url(#paint0_radial_2085_859)"/>
<path opacity="0.2" d="M40 7.46875L70.925 33.975C70.7375 34.275 70.625 34.625 70.625 35L70.625 74.375L9.375 74.375L9.375 35C9.375 34.625 9.2625 34.275 9.075 33.9812L40 7.46875ZM40 5L5 35L7.5 35L7.5 76.25L72.5 76.25L72.5 35L75 35L40 5Z" fill="#424242"/>
<path d="M77.5 77.5L12.5 77.5L12.5 72.5L75 72.5C76.3812 72.5 77.5 73.6187 77.5 75L77.5 77.5Z" fill="#689F38"/>
<path opacity="0.2" d="M75 74.375C75.3438 74.375 75.625 74.6562 75.625 75L75.625 75.625L14.375 75.625L14.375 74.375L75 74.375ZM75 72.5L12.5 72.5L12.5 77.5L77.5 77.5L77.5 75C77.5 73.6187 76.3812 72.5 75 72.5Z" fill="#424242"/>
<path opacity="0.2" d="M45.625 18.75C46.3125 18.75 46.875 19.3125 46.875 20L46.875 31.25C46.875 31.9375 46.3125 32.5 45.625 32.5L34.375 32.5C33.6875 32.5 33.125 31.9375 33.125 31.25L33.125 20C33.125 19.3125 33.6875 18.75 34.375 18.75L45.625 18.75ZM45.625 17.5L34.375 17.5C32.9937 17.5 31.875 18.6187 31.875 20L31.875 31.25C31.875 32.6313 32.9938 33.75 34.375 33.75L45.625 33.75C47.0063 33.75 48.125 32.6313 48.125 31.25L48.125 20C48.125 18.6187 47.0063 17.5 45.625 17.5Z" fill="#424242"/>
<path opacity="0.2" d="M61.25 40C61.9375 40 62.5 40.5625 62.5 41.25L62.5 58.75C62.5 59.4375 61.9375 60 61.25 60L50 60C49.3125 60 48.75 59.4375 48.75 58.75L48.75 41.25C48.75 40.5625 49.3125 40 50 40L61.25 40ZM61.25 38.75L50 38.75C48.6187 38.75 47.5 39.8687 47.5 41.25L47.5 58.75C47.5 60.1313 48.6188 61.25 50 61.25L61.25 61.25C62.6313 61.25 63.75 60.1313 63.75 58.75L63.75 41.25C63.75 39.8687 62.6313 38.75 61.25 38.75Z" fill="#424242"/>
<path d="M40 70L17.5 70L17.5 38.75C17.5 38.0625 18.0625 37.5 18.75 37.5L38.75 37.5C39.4375 37.5 40 38.0625 40 38.75L40 70Z" fill="url(#paint1_radial_2085_859)"/>
<path d="M37.5 68.4813L20 68.4813C19.6563 68.4813 19.375 68.2 19.375 67.8563L19.375 39.6438C19.375 39.3 19.6562 39.0188 20 39.0188L37.5 39.0188C37.8438 39.0188 38.125 39.3 38.125 39.6438L38.125 67.8563C38.125 68.2 37.8438 68.4813 37.5 68.4813Z" fill="url(#paint2_radial_2085_859)"/>
<path d="M34.0625 19.6875L45.9375 19.6875L45.9375 31.5625L34.0625 31.5625L34.0625 19.6875Z" fill="#4FC3F7"/>
<path d="M33.125 20L33.125 31.25C33.125 31.9375 33.6875 32.5 34.375 32.5L45.625 32.5C46.3125 32.5 46.875 31.9375 46.875 31.25L46.875 20C46.875 19.3125 46.3125 18.75 45.625 18.75L34.375 18.75C33.6875 18.75 33.125 19.3125 33.125 20ZM45.625 25L40.625 25L40.625 20L45.625 20L45.625 25ZM39.375 20L39.375 25L34.375 25L34.375 20L39.375 20ZM34.375 26.25L39.375 26.25L39.375 31.25L34.375 31.25L34.375 26.25ZM40.625 31.25L40.625 26.25L45.625 26.25L45.625 31.25L40.625 31.25Z" fill="#EEEEEE"/>
<path d="M49.3936 40.9375L61.8561 40.9375L61.8561 59.0625L49.3936 59.0625L49.3936 40.9375Z" fill="#4FC3F7"/>
<path d="M35.625 51.25L21.875 51.25C21.5313 51.25 21.25 50.9688 21.25 50.625L21.25 41.875C21.25 41.5312 21.5312 41.25 21.875 41.25L35.625 41.25C35.9688 41.25 36.25 41.5312 36.25 41.875L36.25 50.625C36.25 50.9687 35.9688 51.25 35.625 51.25Z" fill="url(#paint3_radial_2085_859)"/>
<path d="M35.625 66.25L21.875 66.25C21.5313 66.25 21.25 65.9688 21.25 65.625L21.25 54.375C21.25 54.0312 21.5312 53.75 21.875 53.75L35.625 53.75C35.9688 53.75 36.25 54.0312 36.25 54.375L36.25 65.625C36.25 65.9687 35.9688 66.25 35.625 66.25Z" fill="url(#paint4_radial_2085_859)"/>
<path d="M42.5127 72.075L15.0127 72.075L15.0127 69.7876C15.0127 68.9313 15.7064 68.2375 16.5627 68.2375L40.9689 68.2375C41.8252 68.2375 42.5189 68.9313 42.5189 69.7876L42.5189 72.075L42.5127 72.075Z" fill="url(#paint5_linear_2085_859)"/>
<path opacity="0.3" d="M40.9689 68.8625C41.4752 68.8625 41.8939 69.2751 41.8939 69.7876L41.8939 71.45L15.6439 71.45L15.6439 69.7876C15.6439 69.2813 16.0564 68.8625 16.5689 68.8625L40.9689 68.8625ZM40.9689 68.2375L16.5627 68.2375C15.7064 68.2375 15.0127 68.9313 15.0127 69.7876L15.0127 72.075L42.5127 72.075L42.5127 69.7876C42.5127 68.9313 41.8189 68.2375 40.9689 68.2375Z" fill="#263238"/>
<path d="M45.0127 75.6376L12.5127 75.6376L12.5127 73.0126C12.5127 72.1126 13.2439 71.3813 14.1439 71.3813L43.3814 71.3813C44.2814 71.3813 45.0127 72.1126 45.0127 73.0126L45.0127 75.6376Z" fill="url(#paint6_linear_2085_859)"/>
<path opacity="0.3" d="M43.3814 72.0063C43.9377 72.0063 44.3877 72.4563 44.3877 73.0126L44.3877 75.0126L13.1377 75.0126L13.1377 73.0126C13.1377 72.4563 13.5877 72.0063 14.1439 72.0063L43.3814 72.0063ZM43.3814 71.3813L14.1439 71.3813C13.2439 71.3813 12.5127 72.1126 12.5127 73.0126L12.5127 75.6376L45.0127 75.6376L45.0127 73.0126C45.0127 72.1126 44.2877 71.3813 43.3814 71.3813Z" fill="#263238"/>
<path opacity="0.2" d="M27.8318 69.7892C27.89 69.6526 27.7183 69.4487 27.4484 69.3338C27.1784 69.2188 26.9125 69.2363 26.8543 69.3729C26.7962 69.5094 26.9678 69.7133 27.2378 69.8283C27.5077 69.9432 27.7737 69.9257 27.8318 69.7892Z" fill="#424242"/>
<path opacity="0.2" d="M39.6131 71.0297C39.6958 70.9279 39.6108 70.7219 39.4232 70.5696C39.2356 70.4173 39.0166 70.3764 38.9339 70.4782C38.8512 70.5801 38.9362 70.7861 39.1238 70.9384C39.3114 71.0906 39.5305 71.1316 39.6131 71.0297Z" fill="#424242"/>
<path opacity="0.08" d="M28.9377 70.8186C29.2932 70.8186 29.5814 70.6787 29.5814 70.5061C29.5814 70.3335 29.2932 70.1936 28.9377 70.1936C28.5822 70.1936 28.2939 70.3335 28.2939 70.5061C28.2939 70.6787 28.5822 70.8186 28.9377 70.8186Z" fill="#424242"/>
<path opacity="0.08" d="M34.4875 70.7749C34.843 70.7749 35.1312 70.635 35.1312 70.4624C35.1312 70.2898 34.843 70.1499 34.4875 70.1499C34.132 70.1499 33.8438 70.2898 33.8438 70.4624C33.8438 70.635 34.132 70.7749 34.4875 70.7749Z" fill="#424242"/>
<path opacity="0.08" d="M33.1557 69.9374C33.4007 69.9374 33.5994 69.8171 33.5994 69.6687C33.5994 69.5202 33.4007 69.3999 33.1557 69.3999C32.9106 69.3999 32.7119 69.5202 32.7119 69.6687C32.7119 69.8171 32.9106 69.9374 33.1557 69.9374Z" fill="#424242"/>
<path opacity="0.08" d="M40.3748 70.1625C40.7269 70.1625 41.0123 69.989 41.0123 69.775C41.0123 69.5609 40.7269 69.3875 40.3748 69.3875C40.0227 69.3875 39.7373 69.5609 39.7373 69.775C39.7373 69.989 40.0227 70.1625 40.3748 70.1625Z" fill="#424242"/>
<path opacity="0.08" d="M25.0873 69.7812C25.3324 69.7812 25.5311 69.6861 25.5311 69.5687C25.5311 69.4513 25.3324 69.3562 25.0873 69.3562C24.8422 69.3562 24.6436 69.4513 24.6436 69.5687C24.6436 69.6861 24.8422 69.7812 25.0873 69.7812Z" fill="#424242"/>
<path opacity="0.08" d="M37.8485 70.3134C38.2444 70.2537 38.5421 70.0504 38.5133 69.8593C38.4845 69.6681 38.1401 69.5616 37.7442 69.6212C37.3483 69.6809 37.0507 69.8842 37.0795 70.0753C37.1083 70.2665 37.4526 70.373 37.8485 70.3134Z" fill="#424242"/>
<path opacity="0.2" d="M26.1813 70.769C26.5577 70.6806 26.8269 70.4564 26.7828 70.2682C26.7386 70.0801 26.3976 69.9992 26.0213 70.0875C25.6449 70.1759 25.3757 70.4001 25.4199 70.5883C25.464 70.7765 25.805 70.8574 26.1813 70.769Z" fill="#424242"/>
<path opacity="0.2" d="M35.6307 69.8937C36.1208 69.8937 36.5182 69.7481 36.5182 69.5687C36.5182 69.3892 36.1208 69.2437 35.6307 69.2437C35.1405 69.2437 34.7432 69.3892 34.7432 69.5687C34.7432 69.7481 35.1405 69.8937 35.6307 69.8937Z" fill="#424242"/>
<path opacity="0.2" d="M30.4514 69.6089C30.6993 69.4455 30.8417 69.2243 30.7695 69.1148C30.6973 69.0053 30.4379 69.0489 30.19 69.2123C29.9421 69.3756 29.7997 69.5968 29.8719 69.7064C29.9441 69.8159 30.2035 69.7723 30.4514 69.6089Z" fill="#424242"/>
<path opacity="0.2" d="M32.769 70.7972C32.8529 70.6154 32.545 70.2944 32.0813 70.0801C31.6175 69.8659 31.1735 69.8395 31.0895 70.0213C31.0056 70.203 31.3135 70.524 31.7772 70.7383C32.241 70.9525 32.685 70.9789 32.769 70.7972Z" fill="#424242"/>
<path opacity="0.2" d="M40.5171 73.2928C40.8188 73.1831 41.0222 72.981 40.9715 72.8416C40.9208 72.7021 40.6351 72.6779 40.3334 72.7877C40.0317 72.8974 39.8282 73.0994 39.879 73.2389C39.9297 73.3784 40.2154 73.4025 40.5171 73.2928Z" fill="#424242"/>
<path opacity="0.2" d="M27.4051 74.4074C27.619 74.2615 27.7308 74.0531 27.655 73.9419C27.5791 73.8307 27.3443 73.8588 27.1304 74.0047C26.9165 74.1505 26.8047 74.359 26.8805 74.4702C26.9564 74.5814 27.1912 74.5533 27.4051 74.4074Z" fill="#424242"/>
<path opacity="0.08" d="M38.6744 74.2688C39.0679 74.2688 39.3869 74.1289 39.3869 73.9563C39.3869 73.7837 39.0679 73.6438 38.6744 73.6438C38.2809 73.6438 37.9619 73.7837 37.9619 73.9563C37.9619 74.1289 38.2809 74.2688 38.6744 74.2688Z" fill="#424242"/>
<path opacity="0.08" d="M32.5494 74.2312C32.9429 74.2312 33.2619 74.0913 33.2619 73.9187C33.2619 73.7461 32.9429 73.6062 32.5494 73.6062C32.1559 73.6062 31.8369 73.7461 31.8369 73.9187C31.8369 74.0913 32.1559 74.2312 32.5494 74.2312Z" fill="#424242"/>
<path opacity="0.08" d="M34.0187 73.3939C34.288 73.3939 34.5062 73.2736 34.5062 73.1252C34.5062 72.9768 34.288 72.8564 34.0187 72.8564C33.7495 72.8564 33.5313 72.9768 33.5313 73.1252C33.5313 73.2736 33.7495 73.3939 34.0187 73.3939Z" fill="#424242"/>
<path opacity="0.08" d="M26.0623 73.6187C26.4489 73.6187 26.7623 73.4453 26.7623 73.2312C26.7623 73.0172 26.4489 72.8437 26.0623 72.8437C25.6757 72.8437 25.3623 73.0172 25.3623 73.2312C25.3623 73.4453 25.6757 73.6187 26.0623 73.6187Z" fill="#424242"/>
<path opacity="0.08" d="M42.9182 73.2375C43.1874 73.2375 43.4057 73.1424 43.4057 73.025C43.4057 72.9076 43.1874 72.8125 42.9182 72.8125C42.6489 72.8125 42.4307 72.9076 42.4307 73.025C42.4307 73.1424 42.6489 73.2375 42.9182 73.2375Z" fill="#424242"/>
<path opacity="0.08" d="M29.6827 73.5259C29.7076 73.3342 29.3753 73.1332 28.9405 73.0769C28.5058 73.0206 28.1332 73.1304 28.1084 73.3221C28.0836 73.5138 28.4159 73.7148 28.8506 73.7711C29.2854 73.8274 29.6579 73.7176 29.6827 73.5259Z" fill="#424242"/>
<path opacity="0.2" d="M42.5597 74.038C42.5977 73.8485 42.2912 73.6271 41.8749 73.5435C41.4587 73.4599 41.0904 73.5457 41.0523 73.7352C41.0143 73.9247 41.3208 74.1461 41.7371 74.2297C42.1533 74.3133 42.5216 74.2275 42.5597 74.038Z" fill="#424242"/>
<path opacity="0.2" d="M31.2875 73.3502C31.826 73.3502 32.2625 73.2047 32.2625 73.0252C32.2625 72.8457 31.826 72.7002 31.2875 72.7002C30.749 72.7002 30.3125 72.8457 30.3125 73.0252C30.3125 73.2047 30.749 73.3502 31.2875 73.3502Z" fill="#424242"/>
<path opacity="0.2" d="M37.6565 73.1592C37.7233 73.0423 37.554 72.8198 37.2783 72.6622C37.0026 72.5046 36.7249 72.4715 36.6581 72.5884C36.5913 72.7053 36.7606 72.9278 37.0363 73.0854C37.312 73.243 37.5897 73.276 37.6565 73.1592Z" fill="#424242"/>
<path opacity="0.2" d="M35.5183 74.2001C36.0302 73.9927 36.3831 73.6714 36.3066 73.4827C36.2301 73.2939 35.7531 73.3091 35.2413 73.5166C34.7294 73.7241 34.3765 74.0453 34.453 74.2341C34.5295 74.4228 35.0065 74.4076 35.5183 74.2001Z" fill="#424242"/>
<path d="M50 40C49.3125 40 48.75 40.5625 48.75 41.25L48.75 58.75C48.75 59.4375 49.3125 60 50 60L61.25 60C61.9375 60 62.5 59.4375 62.5 58.75L62.5 41.25C62.5 40.5625 61.9375 40 61.25 40L50 40ZM56.25 41.25L61.25 41.25L61.25 46.25L56.25 46.25L56.25 41.25ZM50 41.25L55 41.25L55 46.25L50 46.25L50 41.25ZM50 47.5L55 47.5L55 52.5L50 52.5L50 47.5ZM55 58.75L50 58.75L50 53.75L55 53.75L55 58.75ZM61.25 58.75L56.25 58.75L56.25 53.75L61.25 53.75L61.25 58.75ZM56.25 52.5L56.25 47.5L61.25 47.5L61.25 52.5L56.25 52.5Z" fill="#EEEEEE"/>
<path d="M35.4561 55.625C36.8368 55.625 37.9561 54.5057 37.9561 53.125C37.9561 51.7443 36.8368 50.625 35.4561 50.625C34.0753 50.625 32.9561 51.7443 32.9561 53.125C32.9561 54.5057 34.0753 55.625 35.4561 55.625Z" fill="#FFC107"/>
<path d="M35.4561 51.25C36.4936 51.25 37.3311 52.0875 37.3311 53.125C37.3311 54.1625 36.4936 55 35.4561 55C34.4186 55 33.5811 54.1625 33.5811 53.125C33.5811 52.0875 34.4248 51.25 35.4561 51.25ZM35.4561 50C33.7311 50 32.3311 51.4 32.3311 53.125C32.3311 54.85 33.7311 56.25 35.4561 56.25C37.1811 56.25 38.5811 54.85 38.5811 53.125C38.5811 51.4 37.1811 50 35.4561 50Z" fill="#C62828"/>
<path d="M63.125 62.5L48.125 62.5C47.4375 62.5 46.875 61.9375 46.875 61.25L46.875 58.75C46.875 58.0625 47.4375 57.5 48.125 57.5L63.125 57.5C63.8125 57.5 64.375 58.0625 64.375 58.75L64.375 61.25C64.375 61.9375 63.8125 62.5 63.125 62.5Z" fill="#795548"/>
<path opacity="0.2" d="M63.125 58.75L63.125 61.25L48.125 61.25L48.125 58.75L63.125 58.75ZM63.125 57.5L48.125 57.5C47.4375 57.5 46.875 58.0625 46.875 58.75L46.875 61.25C46.875 61.9375 47.4375 62.5 48.125 62.5L63.125 62.5C63.8125 62.5 64.375 61.9375 64.375 61.25L64.375 58.75C64.375 58.0625 63.8125 57.5 63.125 57.5Z" fill="#424242"/>
<path d="M76.4253 33.25L42.0003 3.25C40.8503 2.25 39.1503 2.25 38.0003 3.25L3.57527 33.25C2.28777 34.375 2.13777 36.3438 3.24402 37.6562C4.35027 38.9687 6.28777 39.1188 7.57527 37.9938L38.769 10.8125C39.4753 10.2 40.5253 10.2 41.2315 10.8125L72.4253 37.9938C73.0065 38.5 73.719 38.7438 74.4253 38.7438C75.294 38.7438 76.1503 38.375 76.7628 37.65C77.8628 36.35 77.7128 34.375 76.4253 33.25Z" fill="url(#paint7_radial_2085_859)"/>
<path d="M3.98085 76.8749C3.56835 76.8749 3.34335 76.4374 3.26835 76.2499C3.0371 75.6937 3.0621 74.8749 3.5496 74.3874C3.7496 74.1874 3.76835 73.8499 3.6371 73.6061C3.3371 73.0749 3.2121 72.4124 3.28085 71.7437C3.4871 69.6562 5.1121 67.9312 7.2371 67.5437C7.53085 67.4937 7.8246 67.4624 8.11835 67.4624C8.50585 67.4624 8.8996 67.5124 9.28085 67.6062C9.33085 67.6187 9.38085 67.6249 9.43085 67.6249C9.64335 67.6249 9.84335 67.5187 9.9621 67.3312C10.8621 65.8874 12.4059 65.0249 14.0996 65.0249C16.2496 65.0249 18.1746 66.4687 18.7746 68.5312C18.8559 68.7999 19.0996 68.9812 19.3746 68.9812C19.4121 68.9812 19.4496 68.9749 19.4934 68.9687C19.7996 68.9124 20.1059 68.8812 20.4059 68.8812C20.7871 68.8812 21.1684 68.9249 21.5434 69.0187C23.5746 69.5124 25.1059 71.3062 25.2684 73.3687C25.3684 74.6624 24.9684 75.8937 24.1496 76.8749L3.98085 76.8749Z" fill="url(#paint8_radial_2085_859)"/>
<path d="M14.0996 65.6438C15.9746 65.6438 17.6496 66.9 18.1746 68.7C18.3309 69.2438 18.8309 69.6 19.3746 69.6C19.4496 69.6 19.5309 69.5938 19.6059 69.575C19.8684 69.525 20.1371 69.5 20.3996 69.5C20.7309 69.5 21.0621 69.5375 21.3871 69.6188C23.1621 70.05 24.4996 71.6125 24.6371 73.4125C24.7184 74.4438 24.4309 75.4313 23.8371 76.2438L4.0121 76.25C3.96835 76.225 3.81835 76.0438 3.76835 75.7063C3.7246 75.4313 3.76835 75.05 3.99335 74.8188C4.30585 74.5125 4.5371 73.9251 4.18085 73.2876C3.94335 72.8688 3.84335 72.3376 3.8996 71.7875C4.0746 70.0063 5.5246 68.475 7.34335 68.1438C7.5996 68.1 7.85585 68.075 8.1121 68.075C8.4496 68.075 8.79335 68.1188 9.1246 68.2001C9.2246 68.2251 9.3246 68.2375 9.4246 68.2375C9.8496 68.2375 10.2559 68.0188 10.4871 67.65C11.2684 66.4 12.6184 65.6438 14.0996 65.6438ZM14.0996 64.3938C12.1246 64.3938 10.3996 65.4313 9.43085 66.9938C9.0121 66.8938 8.5746 66.8376 8.11835 66.8376C7.79335 66.8376 7.4621 66.8688 7.1246 66.9251C4.7746 67.3501 2.89335 69.3 2.65585 71.675C2.51835 73.0688 3.11835 73.9313 3.10585 73.9438C1.9371 75.1188 2.58085 77.5 3.98085 77.5L24.4246 77.5C25.4309 76.4188 26.0121 74.9375 25.8871 73.325C25.7059 70.9688 23.9871 68.975 21.6871 68.4125C21.2496 68.3063 20.8184 68.2563 20.4059 68.2563C20.0559 68.2563 19.7121 68.2938 19.3746 68.3563C18.7059 66.0688 16.5996 64.3938 14.0996 64.3938Z" fill="#689F38"/>
<path d="M8.69365 70.5812C8.69365 70.5812 8.64365 69.0749 9.85615 67.4624" stroke="#689F38" stroke-width="2" stroke-miterlimit="10" stroke-linecap="round" stroke-linejoin="round"/>
<path d="M19.2809 68.9812C17.8559 69.0062 16.4684 70.1249 16.2559 71.4874" stroke="#689F38" stroke-width="2" stroke-miterlimit="10" stroke-linecap="round" stroke-linejoin="round"/>
<path d="M17.8188 72.1188C16.5688 71.55 14.8875 71.6375 13.5938 72.3" stroke="#689F38" stroke-width="2" stroke-miterlimit="10" stroke-linecap="round" stroke-linejoin="round"/>
<path opacity="0.2" d="M40.0003 4.375C40.2003 4.375 40.494 4.425 40.769 4.66875L75.194 34.6688C75.7128 35.125 75.7753 35.925 75.3253 36.4563C75.0128 36.825 74.6253 36.8812 74.4253 36.8812C74.2253 36.8812 73.9315 36.8312 73.6565 36.5875L42.4628 9.4C41.7815 8.80625 40.9065 8.475 40.0003 8.475C39.094 8.475 38.219 8.8 37.5378 9.4L6.34402 36.5812C6.06902 36.825 5.77527 36.875 5.57527 36.875C5.37527 36.875 4.98777 36.8187 4.67527 36.45C4.22527 35.9188 4.28777 35.1187 4.80652 34.6625L39.2315 4.6625C39.5065 4.425 39.8003 4.375 40.0003 4.375ZM40.0003 2.5C39.2878 2.5 38.5753 2.75 38.0003 3.25L3.57527 33.25C2.28777 34.375 2.13777 36.3438 3.24402 37.6562C3.85027 38.3812 4.70652 38.75 5.57527 38.75C6.28152 38.75 6.99402 38.5 7.57527 38L38.769 10.8125C39.119 10.5062 39.5628 10.35 40.0003 10.35C40.4378 10.35 40.8815 10.5062 41.2315 10.8125L72.4253 37.9938C73.0065 38.5 73.719 38.7438 74.4253 38.7438C75.294 38.7438 76.1503 38.375 76.7628 37.65C77.869 36.3375 77.719 34.3687 76.4315 33.2437L42.0003 3.25C41.4253 2.75 40.7128 2.5 40.0003 2.5Z" fill="#424242"/>
<defs>
<radialGradient id="paint0_radial_2085_859" cx="0" cy="0" r="1" gradientUnits="userSpaceOnUse" gradientTransform="translate(40 5.21994) scale(77.5937 77.5937)">
<stop stop-color="#FFD54F"/>
<stop offset="0.179" stop-color="#FFD34B"/>
<stop offset="0.3526" stop-color="#FFCE3F"/>
<stop offset="0.524" stop-color="#FFC62C"/>
<stop offset="0.693" stop-color="#FFBA11"/>
<stop offset="0.7785" stop-color="#FFB300"/>
<stop offset="1" stop-color="#FFB300"/>
</radialGradient>
<radialGradient id="paint1_radial_2085_859" cx="0" cy="0" r="1" gradientUnits="userSpaceOnUse" gradientTransform="translate(28.3594 37.3438) scale(32.8138 32.8137)">
<stop stop-color="#D32F2F"/>
<stop offset="0.4374" stop-color="#CA2929"/>
<stop offset="0.9957" stop-color="#B71C1C"/>
</radialGradient>
<radialGradient id="paint2_radial_2085_859" cx="0" cy="0" r="1" gradientUnits="userSpaceOnUse" gradientTransform="translate(28.6719 39.0625) scale(29.4556 29.4556)">
<stop stop-color="#EF5350"/>
<stop offset="1" stop-color="#E53935"/>
</radialGradient>
<radialGradient id="paint3_radial_2085_859" cx="0" cy="0" r="1" gradientUnits="userSpaceOnUse" gradientTransform="translate(28.4375 41.7188) scale(26.0094)">
<stop stop-color="#E53935"/>
<stop offset="0.4072" stop-color="#DC3431"/>
<stop offset="1" stop-color="#C62828"/>
</radialGradient>
<radialGradient id="paint4_radial_2085_859" cx="0" cy="0" r="1" gradientUnits="userSpaceOnUse" gradientTransform="translate(28.4375 41.7187) scale(26.0094 26.0094)">
<stop stop-color="#E53935"/>
<stop offset="0.4072" stop-color="#DC3431"/>
<stop offset="1" stop-color="#C62828"/>
</radialGradient>
<linearGradient id="paint5_linear_2085_859" x1="28.7652" y1="68.5438" x2="28.7652" y2="72.625" gradientUnits="userSpaceOnUse">
<stop offset="0.0042918" stop-color="#BDBDBD"/>
<stop offset="0.2153" stop-color="#B5B5B5"/>
<stop offset="0.5502" stop-color="#9E9E9E"/>
<stop offset="0.9652" stop-color="#787878"/>
<stop offset="1" stop-color="#757575"/>
</linearGradient>
<linearGradient id="paint6_linear_2085_859" x1="28.7652" y1="71.5126" x2="28.7652" y2="75.5688" gradientUnits="userSpaceOnUse">
<stop offset="0.0042918" stop-color="#BDBDBD"/>
<stop offset="0.3969" stop-color="#BABABA"/>
<stop offset="0.7025" stop-color="#B0B0B0"/>
<stop offset="0.9786" stop-color="#A0A0A0"/>
<stop offset="1" stop-color="#9E9E9E"/>
</linearGradient>
<radialGradient id="paint7_radial_2085_859" cx="0" cy="0" r="1" gradientUnits="userSpaceOnUse" gradientTransform="translate(39.6878 2.34375) scale(42.2744 42.2744)">
<stop stop-color="#F44336"/>
<stop offset="0.34" stop-color="#EE3F35"/>
<stop offset="0.8027" stop-color="#DC3531"/>
<stop offset="0.9957" stop-color="#D32F2F"/>
</radialGradient>
<radialGradient id="paint8_radial_2085_859" cx="0" cy="0" r="1" gradientUnits="userSpaceOnUse" gradientTransform="translate(13.7749 65.7093) rotate(90) scale(15.1862 17.6419)">
<stop stop-color="#9CCC65"/>
<stop offset="0.2538" stop-color="#96C760"/>
<stop offset="0.5994" stop-color="#84B851"/>
<stop offset="0.9952" stop-color="#689F38"/>
</radialGradient>
</defs>
</svg>
