<svg width="90" height="90" viewBox="0 0 90 90" fill="none" xmlns="http://www.w3.org/2000/svg">
<path fill-rule="evenodd" clip-rule="evenodd" d="M21.7127 44.0297C21.7127 44.7328 21.5018 45.3586 21.0799 45.907C20.658 46.4555 20.1236 46.7156 19.4768 46.6875C19.0268 46.6594 17.9299 46.0617 16.1861 44.8945C14.4424 43.7273 13.5564 42.9188 13.5283 42.4688C13.5283 42.2719 13.5705 42.0117 13.6549 41.6883C13.7393 41.3648 13.7814 41.1188 13.7814 40.95V23.2312C13.7814 22.5844 13.1486 22.1203 11.883 21.8391C10.4768 21.5016 9.6752 21.0375 9.47832 20.4469C9.36582 20.1375 9.30957 19.8422 9.30957 19.5609C9.30957 18.9422 9.61894 18.2109 10.2377 17.3672C11.0814 16.2141 11.5877 15.4688 11.7564 15.1313L12.7689 11.8406C13.2471 10.6031 14.0768 9.98438 15.258 9.98438C16.4674 9.98438 17.6768 10.35 18.8861 11.0813C20.2361 11.8969 20.9111 12.825 20.9111 13.8656V41.8359C20.9111 42.1172 21.0447 42.4758 21.3119 42.9117C21.5791 43.3477 21.7127 43.7203 21.7127 44.0297Z" fill="#7180F1"/>
<path fill-rule="evenodd" clip-rule="evenodd" d="M53.3535 54.8438C53.4379 55.6594 52.9176 56.2359 51.7926 56.5734C51.427 56.5172 50.8926 56.5312 50.1895 56.6156C49.6832 56.6156 48.0942 57.0234 45.4223 57.8391C42.4129 58.6828 40.177 59.4703 38.7145 60.2016C38.3207 60.3984 37.9621 60.6586 37.6387 60.982C37.3152 61.3055 37.1113 61.4672 37.027 61.4672C36.6051 61.5234 35.3817 60.7922 33.3566 59.2734C32.7941 58.9359 32.2316 58.5703 31.6691 58.1766C31.1066 57.7828 30.8113 57.3188 30.7832 56.7844C30.7832 56.5875 32.0066 54.7453 34.4535 51.2578C37.4629 46.9828 39.7973 43.411 41.4566 40.5422C44.016 36.014 45.3941 32.4281 45.591 29.7844C43.3973 30.6844 41.2035 32.7094 39.0098 35.8594C38.841 36 38.7355 36.2602 38.6934 36.6398C38.6512 37.0195 38.5738 37.2797 38.4613 37.4203C38.1801 37.7859 37.7723 37.9688 37.2379 37.9688C36.3098 37.9688 35.1848 37.5188 33.8629 36.6188L32.1754 35.6906C31.5004 35.325 31.1488 35.0016 31.1207 34.7203C31.0645 34.0734 31.7676 32.8219 33.2301 30.9656C34.8051 28.9969 36.5488 27.3234 38.4613 25.9453C40.7395 24.2578 42.7644 23.4141 44.5363 23.4141C45.2113 23.4141 45.8512 23.632 46.4559 24.068C47.0606 24.5039 47.6441 24.9469 48.2066 25.3969C50.4848 26.9719 51.9332 28.4625 52.552 29.8688C52.6645 30.15 52.7207 30.5156 52.7207 30.9656C52.7207 32.9344 51.6801 36.1406 49.5988 40.5844C47.6301 44.775 45.5207 48.4172 43.2707 51.5109C44.1426 51.2297 45.3519 50.8078 46.8988 50.2453C47.0676 50.1609 47.3629 49.9641 47.7848 49.6547C48.066 49.4578 48.3332 49.3734 48.5863 49.4016C49.2613 49.4859 50.2105 50.2805 51.434 51.7852C52.6574 53.2899 53.2973 54.3094 53.3535 54.8438Z" fill="#5EA7FF"/>
<path fill-rule="evenodd" clip-rule="evenodd" d="M81.1123 54.0843C80.9154 56.0531 79.6358 58.4156 77.2732 61.1718C80.1139 63.5625 81.5342 66.2906 81.5342 69.3562C81.5342 72.5062 80.142 75.5296 77.3576 78.4265C74.8264 81.014 72.4498 82.3781 70.2279 82.5187C69.3279 82.575 67.4858 81.4781 64.7014 79.2281C62.0014 77.0343 60.6373 75.6562 60.6092 75.0937C60.5811 74.4468 60.8904 73.8562 61.5373 73.3218C62.1842 72.7875 62.8029 72.5343 63.3936 72.5625C63.7873 72.5906 64.4201 73.1109 65.292 74.1234C66.1639 75.1359 66.9654 75.7125 67.6967 75.8531C68.8498 76.1062 70.4107 74.939 72.3795 72.3515C74.2639 69.9046 75.2061 68.0906 75.2061 66.9093C75.2061 66.4031 74.8826 66.15 74.2357 66.15C73.7857 66.15 73.2514 66.375 72.6326 66.825C72.1826 67.1343 71.7397 67.4507 71.3037 67.7742C70.8678 68.0976 70.4389 68.2312 70.017 68.175C69.5389 68.1187 68.7725 67.6687 67.7178 66.825C66.6631 65.9812 65.7982 65.1093 65.1232 64.2093C64.9826 64.0125 64.9123 63.7875 64.9123 63.5343C64.9123 62.7468 65.292 62.1843 66.0514 61.8468C67.1201 61.3687 68.4139 60.3562 69.9326 58.8093C72.1264 56.5312 73.4904 54.1125 74.0248 51.5531C72.8998 51.8062 71.6483 52.8539 70.2701 54.6961C68.892 56.5382 68.0342 57.5156 67.6967 57.6281C67.1623 57.825 66.1428 57.4875 64.6381 56.6156C63.1334 55.7437 62.1561 54.9703 61.7061 54.2953C61.6217 54.1828 61.5795 54.0421 61.5795 53.8734C61.5795 53.4234 61.9592 52.7765 62.7186 51.9328C65.0529 49.3171 66.6561 47.6437 67.5279 46.9125C69.3561 45.3656 71.0998 44.6343 72.7592 44.7187C74.6154 44.8312 76.5209 45.9703 78.4756 48.1359C80.4303 50.3015 81.3092 52.2843 81.1123 54.0843Z" fill="#56E287"/>
</svg>
