<svg width="80" height="80" viewBox="0 0 80 80" fill="none" xmlns="http://www.w3.org/2000/svg">
<path d="M51.3576 4.62454C45.4954 2.72899 31.7043 3.24454 28.2576 7.72677C19.2932 7.9001 8.7776 16.0023 7.3976 26.6912C6.03316 37.269 9.07316 42.1823 10.1554 50.1379C11.382 59.1512 16.4487 62.0334 20.4998 63.2401C26.3287 70.9401 32.5243 70.6112 42.9265 70.6112C63.2398 70.6112 72.9154 57.0201 73.7709 33.9334C74.2865 19.969 66.0954 9.39343 51.3576 4.62454Z" fill="#FFE51E"/>
<path d="M62.9751 34.9179C61.0106 32.1957 58.4929 30.0045 52.9773 29.229C55.0462 30.1779 57.0284 33.4534 57.2862 35.2623C57.544 37.0734 57.804 38.5379 56.1662 36.7268C49.6062 29.4757 42.4617 32.3312 35.3795 27.9001C30.4329 24.8068 28.9284 21.3823 28.9284 21.3823C28.9284 21.3823 28.324 25.9512 20.8262 30.6045C18.6529 31.9534 16.0595 34.9579 14.6195 39.3957C13.5862 42.5845 13.9062 45.429 13.9062 50.2912C13.9062 64.4801 25.5995 76.409 40.024 76.409C54.4484 76.409 66.1417 64.3757 66.1417 50.2912C66.1417 41.469 65.2173 38.0223 62.9751 34.9179Z" fill="#F3D2A2"/>
<path d="M39.9998 68.8888C34.7842 68.8888 32.0554 66.311 31.762 66.0155C30.8931 65.1466 30.8931 63.7421 31.762 62.8733C32.622 62.0132 34.0131 62.0066 34.882 62.851C34.9953 62.9555 36.6731 64.4444 39.9998 64.4444C43.3754 64.4444 45.0509 62.911 45.122 62.8466C46.0065 62.0177 47.4042 62.0421 48.2509 62.911C49.0931 63.7844 49.0954 65.1577 48.2376 66.0155C47.9442 66.311 45.2154 68.8888 39.9998 68.8888ZM42.222 57.7777L37.7776 57.7777C36.5509 57.7777 35.5554 56.7844 35.5554 55.5555C35.5554 54.3266 36.5509 53.3333 37.7776 53.3333L42.222 53.3333C43.4509 53.3333 44.4442 54.3266 44.4442 55.5555C44.4442 56.7844 43.4509 57.7777 42.222 57.7777Z" fill="#C1694F"/>
<path d="M28.8892 48.8889C27.6625 48.8889 26.667 47.8956 26.667 46.6667L26.667 42.2222C26.667 40.9956 27.6625 40 28.8892 40C30.1159 40 31.1114 40.9956 31.1114 42.2222L31.1114 46.6667C31.1114 47.8956 30.1159 48.8889 28.8892 48.8889ZM51.1114 48.8889C49.8825 48.8889 48.8892 47.8956 48.8892 46.6667L48.8892 42.2222C48.8892 40.9956 49.8825 40 51.1114 40C52.3403 40 53.3337 40.9956 53.3337 42.2222L53.3337 46.6667C53.3337 47.8956 52.3403 48.8889 51.1114 48.8889Z" fill="#662113"/>
</svg>
