<svg width="80" height="80" viewBox="0 0 80 80" fill="none" xmlns="http://www.w3.org/2000/svg">
<path d="M45.9196 67.7599C45.9196 68.9333 45.5063 69.9333 44.6796 70.7599C43.8529 71.5866 42.8529 71.9999 41.6796 71.9999H34.2396C33.0663 71.9999 32.0529 71.5866 31.1996 70.7599C30.3463 69.9333 29.9196 68.9333 29.9196 67.7599V60.2399C29.9196 59.0666 30.3463 58.0666 31.1996 57.2399C32.0529 56.4133 33.0663 55.9999 34.2396 55.9999H41.6796C42.8529 55.9999 43.8529 56.4133 44.6796 57.2399C45.5063 58.0666 45.9196 59.0666 45.9196 60.2399V67.7599ZM69.9996 28.4799C69.9996 31.3066 69.7996 33.6666 69.3996 35.5599C68.9996 37.4533 68.2929 39.0133 67.2796 40.2399C66.2663 41.4666 64.8129 42.4266 62.9196 43.1199C61.0263 43.8133 58.6129 44.3733 55.6796 44.7999C53.3863 45.0666 51.5729 45.3199 50.2396 45.5599C48.9063 45.7999 47.9063 46.0666 47.2396 46.3599C46.5729 46.6533 46.1329 46.9999 45.9196 47.3999C45.7063 47.7999 45.5996 48.3199 45.5996 48.9599V50.1599H30.3196V48.5599C30.3196 46.2133 30.5063 44.2266 30.8796 42.5999C31.2529 40.9733 31.9463 39.6133 32.9596 38.5199C33.9729 37.4266 35.3463 36.5466 37.0796 35.8799C38.8129 35.2133 40.9863 34.7199 43.5996 34.3999C46.4263 33.9733 48.5729 33.6266 50.0396 33.3599C51.5063 33.0933 52.6263 32.7599 53.3996 32.3599C54.1729 31.9599 54.6663 31.4533 54.8796 30.8399C55.0929 30.2266 55.1996 29.4133 55.1996 28.3999V27.8399C55.1996 26.8799 54.9863 26.0933 54.5596 25.4799C54.1329 24.8666 53.4396 24.3866 52.4796 24.0399C51.5196 23.6933 50.1996 23.4399 48.5196 23.2799C46.8396 23.1199 44.6663 23.0399 41.9996 23.0399H40.4796C37.4929 23.0399 35.1196 23.1199 33.3596 23.2799C31.5996 23.4399 30.1996 23.7466 29.1596 24.1999C28.1196 24.6533 27.4129 25.3333 27.0396 26.2399C26.6663 27.1466 26.4796 28.3466 26.4796 29.8399V31.9199H11.5996V29.8399C11.5996 27.1199 11.7996 24.7733 12.1996 22.7999C12.5996 20.8266 13.2529 19.1599 14.1596 17.7999C15.0663 16.4399 16.2663 15.3333 17.7596 14.4799C19.2529 13.6266 21.0796 12.9733 23.2396 12.5199C25.3996 12.0666 27.8929 11.7866 30.7196 11.6799C33.3863 11.5199 36.6396 11.4399 40.4796 11.4399H42.0796C47.4129 11.4399 51.8796 11.6399 55.4796 12.0399C59.0796 12.4399 61.9596 13.2133 64.1196 14.3599C66.2796 15.5066 67.7996 17.0799 68.6796 19.0799C69.5596 21.0799 69.9996 23.7066 69.9996 26.9599V28.4799Z" fill="#343B6E"/>
</svg>
