<svg width="90" height="90" viewBox="0 0 90 90" fill="none" xmlns="http://www.w3.org/2000/svg">
<path d="M65.8828 87.1172C66.0234 75.5859 75.4453 66.3047 86.9766 66.3047H87.1172V3.02344C87.0469 3.02344 87.0469 3.02344 86.9766 3.02344C40.4297 3.02344 2.74219 40.6406 2.60156 87.1172H65.8828Z" fill="#F44336"/>
<path d="M65.8828 87.1172C66.0234 75.5859 75.4453 66.3047 86.9766 66.3047H87.1172V13.5703C86.8359 13.5703 86.5547 13.5703 86.2734 13.5703C45.5625 13.5703 12.5859 46.4766 12.4453 87.1172H65.8828Z" fill="#FF9800"/>
<path d="M65.8828 87.1172C66.0234 75.5859 75.4453 66.3047 86.9766 66.3047H87.1172V24.1172C87.0469 24.1172 87.0469 24.1172 86.9766 24.1172C52.1016 24.1172 23.8359 52.3125 23.6953 87.1172H65.8828Z" fill="#FFEB3B"/>
<path d="M65.8828 87.1172C66.0234 75.5859 75.4453 66.3047 86.9766 66.3047H87.1172V34.6641C87.0469 34.6641 87.0469 34.6641 86.9766 34.6641C57.9375 34.6641 34.3828 58.1484 34.2422 87.1172H65.8828Z" fill="#8BC34A"/>
<path d="M65.8828 87.1172C66.0234 75.5859 75.4453 66.3047 86.9766 66.3047H87.1172V45.2109C87.0469 45.2109 87.0469 45.2109 86.9766 45.2109C63.7734 45.2109 44.9297 63.9141 44.7891 87.1172H65.8828Z" fill="#2196F3"/>
<path d="M65.8828 87.1172C66.0234 75.5859 75.4453 66.3047 86.9766 66.3047H87.1172V55.7578C87.0469 55.7578 87.0469 55.7578 86.9766 55.7578C69.6094 55.7578 55.4766 69.75 55.3359 87.1172H65.8828Z" fill="#673AB7"/>
<path opacity="0.2" d="M5.41406 87.1172C5.48437 65.4609 13.9922 45.0703 29.3203 29.7422C44.7188 14.3438 65.1797 5.83594 86.9766 5.83594H87.1172V3.02344C87.0469 3.02344 87.0469 3.02344 86.9766 3.02344C40.4297 3.02344 2.74219 40.6406 2.60156 87.1172H5.41406Z" fill="#424242"/>
<path opacity="0.2" d="M66.5859 87.1172C66.7266 76.0078 75.7969 67.0078 86.9062 67.0078H87.0469V64.1953C86.9766 64.1953 86.9766 64.1953 86.9062 64.1953C74.1797 64.1953 63.9141 74.3906 63.7031 87.1172H66.5859Z" fill="#424242"/>
</svg>
