<svg width="80" height="80" viewBox="0 0 80 80" fill="none" xmlns="http://www.w3.org/2000/svg">
<g clip-path="url(#clip0_2085_831)">
<path d="M77.5541 37.2407L2.44531 37.2407C1.20266 37.2407 0.195313 38.2481 0.195313 39.4907L0.195313 77.5938C0.195313 78.8365 1.20266 79.8438 2.44531 79.8438L77.5541 79.8438C78.7967 79.8438 79.8041 78.8365 79.8041 77.5938L79.8041 39.4907C79.8041 38.2481 78.7967 37.2407 77.5541 37.2407Z" fill="#FFB636"/>
<path d="M68.7771 54.1413L66.0254 54.1413C65.4041 54.1413 64.9004 53.6376 64.9004 53.0163L64.9004 45.6995C64.9004 45.0782 65.4041 44.5745 66.0254 44.5745L68.7771 44.5745C69.3984 44.5745 69.9021 45.0782 69.9021 45.6995L69.9021 53.0163C69.9021 53.6377 69.3984 54.1413 68.7771 54.1413ZM77.1123 53.0163L77.1123 45.6995C77.1123 45.0782 76.6085 44.5745 75.9873 44.5745L73.2355 44.5745C72.6143 44.5745 72.1105 45.0782 72.1105 45.6995L72.1105 53.0163C72.1105 53.6376 72.6143 54.1413 73.2355 54.1413L75.9873 54.1413C76.6087 54.1413 77.1123 53.6377 77.1123 53.0163ZM8.33961 53.0163L8.33961 45.6995C8.33961 45.0782 7.83586 44.5745 7.21461 44.5745L4.46289 44.5745C3.84164 44.5745 3.33789 45.0782 3.33789 45.6995L3.33789 53.0163C3.33789 53.6376 3.84164 54.1413 4.46289 54.1413L7.21461 54.1413C7.83586 54.1413 8.33961 53.6377 8.33961 53.0163ZM15.5498 53.0163L15.5498 45.6995C15.5498 45.0782 15.046 44.5745 14.4248 44.5745L11.6732 44.5745C11.052 44.5745 10.5482 45.0782 10.5482 45.6995L10.5482 53.0163C10.5482 53.6376 11.052 54.1413 11.6732 54.1413L14.4249 54.1413C15.0462 54.1413 15.5498 53.6377 15.5498 53.0163ZM8.33961 61.7193L8.33961 59.2752C8.33961 58.654 7.83586 58.1502 7.21461 58.1502L4.46289 58.1502C3.84164 58.1502 3.33789 58.654 3.33789 59.2752L3.33789 61.7193C3.33789 62.3406 3.84164 62.8443 4.46289 62.8443L7.21461 62.8443C7.83586 62.8443 8.33961 62.3406 8.33961 61.7193ZM15.5498 61.7193L15.5498 59.2752C15.5498 58.654 15.046 58.1502 14.4248 58.1502L11.6732 58.1502C11.052 58.1502 10.5482 58.654 10.5482 59.2752L10.5482 61.7193C10.5482 62.3406 11.052 62.8443 11.6732 62.8443L14.4249 62.8443C15.0462 62.8443 15.5498 62.3406 15.5498 61.7193ZM8.33961 70.1623L8.33961 67.7182C8.33961 67.097 7.83586 66.5932 7.21461 66.5932L4.46289 66.5932C3.84164 66.5932 3.33789 67.097 3.33789 67.7182L3.33789 70.1623C3.33789 70.7835 3.84164 71.2873 4.46289 71.2873L7.21461 71.2873C7.83586 71.2873 8.33961 70.7837 8.33961 70.1623ZM15.5498 70.1623L15.5498 67.7182C15.5498 67.097 15.046 66.5932 14.4248 66.5932L11.6732 66.5932C11.052 66.5932 10.5482 67.097 10.5482 67.7182L10.5482 70.1623C10.5482 70.7835 11.052 71.2873 11.6732 71.2873L14.4249 71.2873C15.0462 71.2873 15.5498 70.7837 15.5498 70.1623ZM69.9021 61.7193L69.9021 59.2752C69.9021 58.654 69.3984 58.1502 68.7771 58.1502L66.0254 58.1502C65.4041 58.1502 64.9004 58.654 64.9004 59.2752L64.9004 61.7193C64.9004 62.3406 65.4041 62.8443 66.0254 62.8443L68.7771 62.8443C69.3984 62.8443 69.9021 62.3406 69.9021 61.7193ZM77.1123 61.7193L77.1123 59.2752C77.1123 58.654 76.6085 58.1502 75.9873 58.1502L73.2355 58.1502C72.6143 58.1502 72.1105 58.654 72.1105 59.2752L72.1105 61.7193C72.1105 62.3406 72.6143 62.8443 73.2355 62.8443L75.9873 62.8443C76.6087 62.8443 77.1123 62.3406 77.1123 61.7193ZM69.9021 70.1623L69.9021 67.7182C69.9021 67.097 69.3984 66.5932 68.7771 66.5932L66.0254 66.5932C65.4041 66.5932 64.9004 67.097 64.9004 67.7182L64.9004 70.1623C64.9004 70.7835 65.4041 71.2873 66.0254 71.2873L68.7771 71.2873C69.3984 71.2873 69.9021 70.7837 69.9021 70.1623ZM77.1123 70.1623L77.1123 67.7182C77.1123 67.097 76.6085 66.5932 75.9873 66.5932L73.2355 66.5932C72.6143 66.5932 72.1106 67.097 72.1106 67.7182L72.1106 70.1623C72.1106 70.7835 72.6143 71.2873 73.2356 71.2873L75.9873 71.2873C76.6087 71.2873 77.1123 70.7837 77.1123 70.1623Z" fill="#D38E3C"/>
<path d="M60.5621 11.136L20.5139 11.136C19.8671 11.136 19.3428 11.8916 19.3428 12.8236L19.3428 78.156C19.3428 79.088 19.8671 79.8436 20.5139 79.8436L60.5621 79.8436C61.2089 79.8436 61.7332 79.088 61.7332 78.156L61.7332 12.8238C61.7332 11.8916 61.209 11.136 60.5621 11.136Z" fill="#FFE1AB"/>
<path d="M27.239 49.3499L23.8027 49.3499C23.1815 49.3499 22.6777 48.8461 22.6777 48.2249L22.6777 39.5986C22.6777 38.9774 23.1815 38.4736 23.8027 38.4736L27.239 38.4736C27.8602 38.4736 28.364 38.9774 28.364 39.5986L28.364 48.2249C28.364 48.8463 27.8602 49.3499 27.239 49.3499ZM36.5609 48.2249L36.5609 39.5986C36.5609 38.9774 36.0571 38.4736 35.4359 38.4736L31.9996 38.4736C31.3784 38.4736 30.8746 38.9774 30.8746 39.5986L30.8746 48.2249C30.8746 48.8461 31.3784 49.3499 31.9996 49.3499L35.4359 49.3499C36.0573 49.3499 36.5609 48.8463 36.5609 48.2249ZM50.0018 48.2249L50.0018 39.5986C50.0018 38.9774 49.498 38.4736 48.8768 38.4736L45.4407 38.4736C44.8195 38.4736 44.3157 38.9774 44.3157 39.5986L44.3157 48.2249C44.3157 48.8461 44.8195 49.3499 45.4407 49.3499L48.8768 49.3499C49.4982 49.3499 50.0018 48.8463 50.0018 48.2249ZM58.1988 48.2249L58.1988 39.5986C58.1988 38.9774 57.6951 38.4736 57.0738 38.4736L53.6376 38.4736C53.0163 38.4736 52.5126 38.9774 52.5126 39.5986L52.5126 48.2249C52.5126 48.8461 53.0163 49.3499 53.6376 49.3499L57.0738 49.3499C57.6951 49.3499 58.1988 48.8463 58.1988 48.2249ZM28.364 57.4107L28.364 54.9666C28.364 54.3454 27.8602 53.8416 27.239 53.8416L23.8027 53.8416C23.1815 53.8416 22.6777 54.3454 22.6777 54.9666L22.6777 57.4107C22.6777 58.0319 23.1815 58.5357 23.8027 58.5357L27.239 58.5357C27.8602 58.5357 28.364 58.0319 28.364 57.4107ZM36.5609 57.4107L36.5609 54.9666C36.5609 54.3454 36.0571 53.8416 35.4359 53.8416L31.9996 53.8416C31.3784 53.8416 30.8746 54.3454 30.8746 54.9666L30.8746 57.4107C30.8746 58.0319 31.3784 58.5357 31.9996 58.5357L35.4359 58.5357C36.0573 58.5357 36.5609 58.0319 36.5609 57.4107ZM50.0018 57.4107L50.0018 54.9666C50.0018 54.3454 49.498 53.8416 48.8768 53.8416L45.4407 53.8416C44.8195 53.8416 44.3157 54.3454 44.3157 54.9666L44.3157 57.4107C44.3157 58.0319 44.8195 58.5357 45.4407 58.5357L48.8768 58.5357C49.4982 58.5357 50.0018 58.0319 50.0018 57.4107ZM58.1988 57.4107L58.1988 54.9666C58.1988 54.3454 57.6951 53.8416 57.0738 53.8416L53.6376 53.8416C53.0163 53.8416 52.5126 54.3454 52.5126 54.9666L52.5126 57.4107C52.5126 58.0319 53.0163 58.5357 53.6376 58.5357L57.0738 58.5357C57.6951 58.5357 58.1988 58.0319 58.1988 57.4107ZM28.364 66.4664L28.364 64.0224C28.364 63.4011 27.8602 62.8974 27.239 62.8974L23.8027 62.8974C23.1815 62.8974 22.6777 63.4011 22.6777 64.0224L22.6777 66.4664C22.6777 67.0877 23.1815 67.5914 23.8027 67.5914L27.239 67.5914C27.8602 67.5914 28.364 67.0879 28.364 66.4664ZM58.1988 66.4664L58.1988 64.0224C58.1988 63.4011 57.6951 62.8974 57.0738 62.8974L53.6376 62.8974C53.0163 62.8974 52.5126 63.4011 52.5126 64.0224L52.5126 66.4664C52.5126 67.0877 53.0163 67.5914 53.6376 67.5914L57.0738 67.5914C57.6951 67.5914 58.1988 67.0879 58.1988 66.4664ZM28.364 74.6747L28.364 72.2307C28.364 71.6094 27.8602 71.1057 27.239 71.1057L23.8027 71.1057C23.1815 71.1057 22.6777 71.6094 22.6777 72.2307L22.6777 74.6747C22.6777 75.296 23.1815 75.7997 23.8027 75.7997L27.239 75.7997C27.8602 75.7997 28.364 75.2961 28.364 74.6747ZM58.1988 74.6747L58.1988 72.2307C58.1988 71.6094 57.6951 71.1057 57.0738 71.1057L53.6376 71.1057C53.0163 71.1057 52.5126 71.6094 52.5126 72.2307L52.5126 74.6747C52.5126 75.296 53.0163 75.7997 53.6376 75.7997L57.0738 75.7997C57.6951 75.7997 58.1988 75.2961 58.1988 74.6747Z" fill="#E2A042"/>
<path d="M32.3838 63.2046L48.691 63.2046L48.691 79.8438L32.3838 79.8438L32.3838 63.2046Z" fill="#2B3B47"/>
<path d="M40.5378 34.8338C45.4887 34.8338 49.5023 30.8203 49.5023 25.8693C49.5023 20.9183 45.4887 16.9048 40.5378 16.9048C35.5868 16.9048 31.5732 20.9183 31.5732 25.8693C31.5732 30.8203 35.5868 34.8338 40.5378 34.8338Z" fill="#FF473E"/>
<path d="M40.5373 32.7776C44.3528 32.7776 47.4458 29.6846 47.4458 25.8691C47.4458 22.0537 44.3528 18.9607 40.5373 18.9607C36.7219 18.9607 33.6289 22.0537 33.6289 25.8691C33.6289 29.6846 36.7219 32.7776 40.5373 32.7776Z" fill="#F4F3EF"/>
<path d="M49.9593 62.2971L49.9593 64.1122C49.9593 64.7335 49.4555 65.2372 48.8343 65.2372L41.0348 65.2372L41.0348 79.8147L40.0405 79.8147L40.0405 65.2372L32.2412 65.2372C31.6199 65.2372 31.1162 64.7335 31.1162 64.1122L31.1162 62.2971C31.1162 61.6758 31.6199 61.1721 32.2412 61.1721L48.8343 61.1721C49.4555 61.1721 49.9593 61.6757 49.9593 62.2971ZM62.7962 13.0955L62.7962 11.1003C62.7962 10.4791 62.2924 9.97534 61.6712 9.97534L19.4043 9.97534C18.783 9.97534 18.2793 10.4791 18.2793 11.1003L18.2793 13.0955C18.2793 13.7167 18.783 14.2205 19.4043 14.2205L61.6712 14.2205C62.2924 14.2205 62.7962 13.7167 62.7962 13.0955ZM45.982 26.5297C45.982 26.1135 45.6446 25.7761 45.2284 25.7761L41.1707 25.7761L41.1707 21.405C41.1707 20.9888 40.8334 20.6514 40.4171 20.6514C40.0009 20.6514 39.6635 20.9889 39.6635 21.405L39.6635 26.5297C39.6635 26.946 40.001 27.2833 40.4171 27.2833L45.2284 27.2833C45.6446 27.2833 45.982 26.946 45.982 26.5297Z" fill="#597B91"/>
</g>
<defs>
<clipPath id="clip0_2085_831">
<rect width="80" height="80" fill="white"/>
</clipPath>
</defs>
</svg>
