<svg width="17" height="16" viewBox="0 0 17 16" fill="none" xmlns="http://www.w3.org/2000/svg">
<g clip-path="url(#clip0_2085_408)">
<path d="M16.0112 6.27177C15.4096 5.2866 14.6507 4.40662 13.7647 3.66674L15.6307 1.80077C15.8864 1.53603 15.879 1.11415 15.6143 0.858466C15.356 0.609027 14.9466 0.609027 14.6883 0.858466L12.6591 2.89037C11.4012 2.14321 9.96303 1.75376 8.49998 1.76413C4.37417 1.76413 2.02304 4.58843 0.988772 6.2718C0.337076 7.32588 0.337076 8.65776 0.988772 9.71187C1.59039 10.697 2.34927 11.577 3.23528 12.3169L1.36932 14.1829C1.10457 14.4385 1.09723 14.8605 1.35292 15.1252C1.6086 15.3899 2.03051 15.3973 2.29522 15.1416C2.30078 15.1362 2.30625 15.1307 2.31162 15.1252L4.34553 13.0913C5.6019 13.8383 7.03831 14.2284 8.49998 14.2195C12.6258 14.2195 14.9769 11.3952 16.0112 9.71184C16.6629 8.65776 16.6629 7.32588 16.0112 6.27177ZM4.5015 7.99182C4.49772 5.78717 6.28184 3.99689 8.48649 3.99311C9.32065 3.99168 10.1343 4.25161 10.8132 4.73637L9.84552 5.70401C9.43929 5.45904 8.97437 5.32846 8.50002 5.32615C7.02781 5.32615 5.83435 6.51961 5.83435 7.99182C5.83666 8.46617 5.96724 8.93109 6.21221 9.33732L5.24457 10.305C4.76137 9.63043 4.50153 8.82154 4.5015 7.99182ZM8.50002 11.9903C7.67029 11.9903 6.8614 11.7305 6.18687 11.2473L7.15451 10.2796C7.56074 10.5246 8.02566 10.6552 8.50002 10.6575C9.97222 10.6575 11.1657 9.46402 11.1657 7.99182C11.1634 7.51746 11.0328 7.05254 10.7878 6.64632L11.7555 5.67868C13.0366 7.47282 12.6208 9.9659 10.8267 11.2471C10.1478 11.7318 9.33417 11.9918 8.50002 11.9903Z" fill="#707070"/>
</g>
<defs>
<clipPath id="clip0_2085_408">
<rect width="16" height="16" fill="white" transform="translate(0.5)"/>
</clipPath>
</defs>
</svg>
