<svg
            width="16"
            height="16"
            viewBox="0 0 16 16"
            fill="none"
            xmlns="http://www.w3.org/2000/svg"
            class="icon"
          >
            <path
              d="M14 2H12V0H4V2H2C0.9 2 0 2.9 0 4V5C0 7.55 1.92 9.63 4.39 9.94C5.02 11.44 6.37 12.57 8 12.9V16H4V14H2V16H14V14H12V12.9C13.63 12.57 14.98 11.44 15.61 9.94C18.08 9.63 20 7.55 20 5V4C20 2.9 19.1 2 18 2H16V0H8V2H6C4.9 2 4 2.9 4 4V5C4 6.66 5.34 8 7 8H9C10.66 8 12 6.66 12 5V4C12 2.9 11.1 2 10 2H8V2Z"
              fill="#FFC443"
            />
          </svg>