<svg width="16" height="16" viewBox="0 0 16 16" fill="none" xmlns="http://www.w3.org/2000/svg">
  <path d="M14.3552 12H1.6448C1.25911 12 0.944427 11.7185 0.911922 11.3348C0.879419 10.9511 1.1575 10.608 1.53606 10.5397C2.08 10.4395 2.5 9.95983 2.5 9.4V6C2.5 3.51472 4.51472 1.5 7 1.5C9.48528 1.5 11.5 3.51472 11.5 6V9.4C11.5 9.95983 11.92 10.4395 12.4639 10.5397C12.8425 10.608 13.1206 10.9511 13.0881 11.3348C13.0556 11.7185 12.7409 12 12.3552 12Z" fill="#343B6E"/>
  <path d="M7 14.5C7.5 14.5 8 14 8 13.5H6C6 14 6.5 14.5 7 14.5Z" fill="#343B6E"/>
</svg>